<svg version="1.0" xmlns="http://www.w3.org/2000/svg" width="1400" height="178" viewBox="0 0 1400.000000 178.000000" preserveAspectRatio="xMidYMid meet">

<g transform="translate(0.000000,178.000000) scale(0.100000,-0.100000)" fill="#12155e" stroke="none">
<path d="M837 1570 c-99 -10 -117 -30 -168 -195 -123 -392 -177 -550 -226
-650 -34 -70 -74 -173 -113 -292 -27 -83 -32 -105 -22 -115 10 -10 142 -13
595 -13 l582 0 48 24 c54 28 92 86 125 192 30 95 117 338 137 384 9 22 25 65
35 95 10 30 41 120 69 200 56 161 64 229 33 290 -28 56 -67 71 -200 81 -135 9
-795 8 -895 -1z m726 -243 c37 -24 61 -64 60 -101 -1 -50 -89 -331 -141 -451
-77 -177 -108 -217 -184 -236 -35 -8 -128 -10 -309 -7 -241 4 -262 6 -287 25
-15 11 -28 32 -30 47 -7 54 201 641 241 684 53 57 79 61 372 59 221 -2 254 -4
278 -20z" fill="#12155e"></path>
<path d="M2395 1574 c-111 -15 -164 -43 -195 -104 -11 -21 -47 -123 -81 -226
-34 -104 -74 -223 -90 -264 -47 -126 -131 -353 -144 -390 -20 -56 -26 -151
-12 -190 9 -27 25 -42 67 -64 52 -28 62 -30 235 -38 99 -5 349 -7 557 -6 437
3 405 -5 440 114 11 38 22 77 25 86 11 36 -36 41 -377 39 -433 -3 -564 4 -597
33 -34 30 -42 100 -18 162 14 37 25 50 59 65 38 17 73 19 509 19 504 0 518 1
551 53 16 24 78 193 136 372 60 181 50 273 -32 317 l-43 23 -480 1 c-264 1
-493 0 -510 -2z m638 -233 c66 -7 83 -13 108 -37 25 -24 29 -35 28 -78 -1 -88
-19 -137 -59 -161 -33 -19 -51 -20 -362 -20 -316 0 -327 1 -355 21 -37 27 -39
51 -14 134 18 60 47 101 94 131 5 4 272 16 372 17 61 0 145 -3 188 -7z" fill="#12155e"></path>
<path d="M3878 1569 c-81 -12 -134 -42 -168 -95 -45 -72 -151 -386 -157 -470
-7 -86 7 -112 74 -145 57 -28 201 -38 477 -34 229 3 310 -5 340 -34 19 -19 19
-26 9 -96 -6 -41 -16 -82 -23 -90 -7 -8 -36 -26 -65 -41 l-54 -26 -400 -2
-400 -2 -29 -27 c-26 -25 -72 -134 -72 -171 0 -36 42 -39 580 -40 427 -1 530
2 550 13 32 18 80 62 80 75 0 5 13 39 29 75 113 260 144 351 145 431 1 49 -4
72 -19 94 -37 55 -58 58 -456 70 -318 10 -369 14 -392 29 -32 21 -41 51 -35
118 6 58 32 92 93 120 37 17 72 19 415 19 224 0 390 4 412 10 33 9 39 17 58
68 12 31 25 75 28 96 9 68 25 66 -497 65 -256 -1 -492 -5 -523 -10z" fill="#12155e"></path>
<path d="M5410 1570 c-148 -12 -178 -47 -256 -290 -107 -333 -115 -357 -218
-607 -62 -151 -73 -230 -42 -303 14 -33 74 -62 138 -66 121 -7 864 -10 938 -4
98 8 144 31 176 86 35 59 112 259 154 399 10 33 38 114 63 180 81 213 137 405
137 468 0 92 -49 124 -213 137 -123 10 -757 10 -877 0z m670 -226 c48 -10 100
-64 100 -104 0 -32 -63 -287 -80 -325 -5 -11 -32 -71 -60 -134 -90 -198 -116
-227 -228 -242 -37 -5 -168 -8 -292 -6 -253 2 -265 5 -298 73 -16 35 -16 39
14 152 29 108 48 165 117 342 67 175 97 216 177 238 39 11 499 16 550 6z" fill="#12155e"></path>
<path d="M6751 1568 c-36 -19 -58 -56 -78 -131 -15 -60 -16 -69 -3 -77 8 -6
96 -10 195 -11 99 0 194 -3 210 -5 39 -6 79 -36 83 -61 4 -25 -58 -248 -98
-352 -16 -42 -45 -121 -65 -176 -20 -55 -59 -154 -86 -220 -53 -126 -73 -190
-65 -210 13 -34 193 -21 233 16 27 26 56 77 80 143 47 126 79 216 123 346 99
291 162 456 182 478 33 34 79 42 256 42 193 0 196 2 226 113 l19 69 -22 21
c-22 22 -22 22 -594 25 -444 2 -577 -1 -596 -10z" fill="#12155e"></path>
<path d="M8253 1570 c-84 -17 -133 -60 -169 -146 -9 -21 -22 -52 -30 -69 -7
-16 -34 -102 -60 -190 -25 -88 -50 -168 -56 -178 -5 -11 -20 -49 -33 -86 -13
-36 -42 -113 -64 -171 -53 -136 -86 -267 -78 -302 11 -43 54 -85 105 -103 62
-22 348 -33 804 -31 398 1 369 -6 407 99 28 76 27 113 -1 128 -15 8 -154 13
-466 16 -265 2 -452 8 -463 14 -46 24 -63 117 -35 184 10 23 29 41 58 56 43
23 44 23 508 21 347 -1 474 1 500 11 51 18 58 31 165 337 57 163 78 247 72
288 -9 50 -42 88 -95 108 -43 17 -90 19 -537 20 -269 1 -509 -2 -532 -6z m674
-228 c71 -6 86 -11 120 -38 36 -30 38 -35 38 -85 0 -33 -8 -69 -20 -94 -35
-69 -48 -72 -330 -80 -289 -7 -431 3 -453 31 -32 43 18 202 76 240 20 14 54
20 137 25 158 8 337 8 432 1z" fill="#12155e"></path>
<path d="M9742 1568 c-55 -12 -114 -69 -134 -129 -9 -24 -43 -127 -76 -229
-94 -284 -121 -364 -130 -380 -25 -44 -83 -195 -102 -264 -37 -133 -18 -190
75 -239 57 -29 262 -39 745 -35 364 3 398 4 424 21 32 22 67 93 74 154 4 39 2
43 -23 53 -18 7 -188 12 -460 14 -442 4 -453 5 -497 44 -27 23 -24 108 5 163
43 82 26 80 564 72 506 -7 516 -6 548 43 8 13 38 88 65 166 27 79 65 187 84
241 75 208 31 291 -163 308 -125 11 -948 9 -999 -3z m796 -242 c51 -26 75 -65
69 -112 -6 -58 -36 -115 -74 -140 -27 -18 -51 -22 -200 -27 -92 -4 -244 -4
-337 0 -193 7 -206 12 -206 82 0 53 51 165 86 187 35 24 179 33 435 29 155 -2
203 -6 227 -19z" fill="#12155e"></path>
<path d="M11379 1571 c-31 -3 -64 -13 -74 -21 -21 -17 -69 -120 -80 -171 -4
-19 -18 -61 -30 -94 -13 -33 -42 -121 -66 -195 -23 -74 -61 -182 -84 -240 -23
-58 -45 -118 -49 -135 -4 -16 -32 -92 -62 -168 -64 -161 -72 -214 -34 -234 30
-15 131 -17 182 -3 24 7 43 21 57 43 18 30 98 263 184 534 49 152 104 298 134
354 18 34 39 55 77 75 l51 29 277 0 276 0 44 -31 c41 -29 43 -32 41 -80 -2
-66 -78 -300 -173 -534 -86 -211 -131 -363 -113 -381 18 -18 206 -17 227 0 34
28 70 117 161 391 174 526 190 563 258 608 l40 27 262 3 c178 3 275 0 305 -8
58 -16 100 -58 100 -102 0 -33 -46 -174 -134 -408 -44 -117 -63 -166 -120
-315 -29 -73 -56 -166 -56 -188 0 -15 14 -17 108 -17 83 0 113 4 131 16 25 18
57 84 98 199 13 39 38 108 55 155 31 89 42 122 108 340 22 74 56 180 75 236
65 190 56 260 -40 299 -49 20 -72 20 -1065 21 -558 1 -1040 -1 -1071 -5z" fill="#12155e"></path>
</g>
</svg>