<svg id="visual" viewBox="0 0 900 600" width="900" height="600" xmlns="http://www.w3.org/2000/svg" xmlns:xlink="http://www.w3.org/1999/xlink" version="1.1"><g stroke-width="1" stroke-linejoin="bevel"><path d="M459 298.9L495 260.1L450 257.1Z" fill="#7ea4ca" stroke="#7ea4ca"></path><path d="M459 298.9L536 325.9L495 260.1Z" fill="#7ea4ca" stroke="#7ea4ca"></path><path d="M495 260.1L438 197.4L450 257.1Z" fill="#688db9" stroke="#688db9"></path><path d="M438 197.4L364 222.1L450 257.1Z" fill="#688db9" stroke="#688db9"></path><path d="M450 257.1L325 298.9L459 298.9Z" fill="#8db3d6" stroke="#8db3d6"></path><path d="M536 325.9L591 292.1L495 260.1Z" fill="#5477a8" stroke="#5477a8"></path><path d="M495 260.1L510 137.4L438 197.4Z" fill="#769cc5" stroke="#769cc5"></path><path d="M325 298.9L421 405.6L459 298.9Z" fill="#688db9" stroke="#688db9"></path><path d="M459 298.9L518 407.6L536 325.9Z" fill="#6f95bf" stroke="#6f95bf"></path><path d="M536 325.9L606 367.9L591 292.1Z" fill="#85abd0" stroke="#85abd0"></path><path d="M421 405.6L518 407.6L459 298.9Z" fill="#4e6fa2" stroke="#4e6fa2"></path><path d="M598 143.4L510 137.4L495 260.1Z" fill="#5477a8" stroke="#5477a8"></path><path d="M438 197.4L341 145.4L364 222.1Z" fill="#769cc5" stroke="#769cc5"></path><path d="M364 222.1L325 298.9L450 257.1Z" fill="#7ea4ca" stroke="#7ea4ca"></path><path d="M518 407.6L606 367.9L536 325.9Z" fill="#85abd0" stroke="#85abd0"></path><path d="M227 234.1L293 305.9L325 298.9Z" fill="#769cc5" stroke="#769cc5"></path><path d="M325 298.9L331 395.6L421 405.6Z" fill="#6f95bf" stroke="#6f95bf"></path><path d="M591 292.1L598 143.4L495 260.1Z" fill="#8db3d6" stroke="#8db3d6"></path><path d="M741 200.4L598 143.4L591 292.1Z" fill="#769cc5" stroke="#769cc5"></path><path d="M432 87.7L341 145.4L438 197.4Z" fill="#5b7ead" stroke="#5b7ead"></path><path d="M364 222.1L227 234.1L325 298.9Z" fill="#688db9" stroke="#688db9"></path><path d="M293 305.9L331 395.6L325 298.9Z" fill="#8db3d6" stroke="#8db3d6"></path><path d="M541 85.7L432 87.7L510 137.4Z" fill="#85abd0" stroke="#85abd0"></path><path d="M510 137.4L432 87.7L438 197.4Z" fill="#769cc5" stroke="#769cc5"></path><path d="M598 143.4L541 85.7L510 137.4Z" fill="#688db9" stroke="#688db9"></path><path d="M518 407.6L626 430.6L606 367.9Z" fill="#85abd0" stroke="#85abd0"></path><path d="M606 367.9L685 366.9L591 292.1Z" fill="#48689c" stroke="#48689c"></path><path d="M554 547.3L626 430.6L518 407.6Z" fill="#5b7ead" stroke="#5b7ead"></path><path d="M467 517.3L518 407.6L421 405.6Z" fill="#6186b3" stroke="#6186b3"></path><path d="M626 430.6L685 366.9L606 367.9Z" fill="#5477a8" stroke="#5477a8"></path><path d="M741 200.4L629 102.7L598 143.4Z" fill="#7ea4ca" stroke="#7ea4ca"></path><path d="M598 143.4L629 102.7L541 85.7Z" fill="#8db3d6" stroke="#8db3d6"></path><path d="M275 113.7L266 147.4L341 145.4Z" fill="#6186b3" stroke="#6186b3"></path><path d="M341 145.4L266 147.4L364 222.1Z" fill="#7ea4ca" stroke="#7ea4ca"></path><path d="M332 543.3L467 517.3L421 405.6Z" fill="#4e6fa2" stroke="#4e6fa2"></path><path d="M266 147.4L227 234.1L364 222.1Z" fill="#7ea4ca" stroke="#7ea4ca"></path><path d="M293 305.9L289 453.6L331 395.6Z" fill="#8db3d6" stroke="#8db3d6"></path><path d="M339 48.7L275 113.7L341 145.4Z" fill="#8db3d6" stroke="#8db3d6"></path><path d="M145 136.4L203 255.1L227 234.1Z" fill="#769cc5" stroke="#769cc5"></path><path d="M189 305.9L289 453.6L293 305.9Z" fill="#6186b3" stroke="#6186b3"></path><path d="M331 395.6L289 453.6L421 405.6Z" fill="#688db9" stroke="#688db9"></path><path d="M432 87.7L339 48.7L341 145.4Z" fill="#688db9" stroke="#688db9"></path><path d="M396 0L339 48.7L432 87.7Z" fill="#769cc5" stroke="#769cc5"></path><path d="M145 136.4L227 234.1L266 147.4Z" fill="#769cc5" stroke="#769cc5"></path><path d="M227 234.1L203 255.1L293 305.9Z" fill="#688db9" stroke="#688db9"></path><path d="M497 0L432 87.7L541 85.7Z" fill="#48689c" stroke="#48689c"></path><path d="M497 0L457 0L432 87.7Z" fill="#688db9" stroke="#688db9"></path><path d="M664 0L497 0L541 85.7Z" fill="#7ea4ca" stroke="#7ea4ca"></path><path d="M757 257.1L741 200.4L591 292.1Z" fill="#85abd0" stroke="#85abd0"></path><path d="M203 255.1L189 305.9L293 305.9Z" fill="#5b7ead" stroke="#5b7ead"></path><path d="M457 0L396 0L432 87.7Z" fill="#5477a8" stroke="#5477a8"></path><path d="M467 517.3L554 547.3L518 407.6Z" fill="#8db3d6" stroke="#8db3d6"></path><path d="M626 430.6L741 448.6L685 366.9Z" fill="#48689c" stroke="#48689c"></path><path d="M685 366.9L757 257.1L591 292.1Z" fill="#769cc5" stroke="#769cc5"></path><path d="M554 547.3L664 489.3L626 430.6Z" fill="#7ea4ca" stroke="#7ea4ca"></path><path d="M846 306.9L810 257.1L757 257.1Z" fill="#6f95bf" stroke="#6f95bf"></path><path d="M156 408.6L276 493.3L289 453.6Z" fill="#769cc5" stroke="#769cc5"></path><path d="M289 453.6L332 543.3L421 405.6Z" fill="#85abd0" stroke="#85abd0"></path><path d="M467 517.3L510 600L554 547.3Z" fill="#85abd0" stroke="#85abd0"></path><path d="M276 493.3L332 543.3L289 453.6Z" fill="#85abd0" stroke="#85abd0"></path><path d="M757 257.1L776 177.4L741 200.4Z" fill="#5477a8" stroke="#5477a8"></path><path d="M741 200.4L754 44.7L629 102.7Z" fill="#4e6fa2" stroke="#4e6fa2"></path><path d="M629 102.7L664 0L541 85.7Z" fill="#769cc5" stroke="#769cc5"></path><path d="M664 489.3L741 448.6L626 430.6Z" fill="#6f95bf" stroke="#6f95bf"></path><path d="M757 257.1L810 257.1L776 177.4Z" fill="#769cc5" stroke="#769cc5"></path><path d="M332 543.3L445 600L467 517.3Z" fill="#7ea4ca" stroke="#7ea4ca"></path><path d="M445 600L510 600L467 517.3Z" fill="#85abd0" stroke="#85abd0"></path><path d="M554 547.3L611 600L664 489.3Z" fill="#6186b3" stroke="#6186b3"></path><path d="M664 489.3L755 515.3L741 448.6Z" fill="#6f95bf" stroke="#6f95bf"></path><path d="M710 0L664 0L629 102.7Z" fill="#85abd0" stroke="#85abd0"></path><path d="M396 0L276 0L339 48.7Z" fill="#4e6fa2" stroke="#4e6fa2"></path><path d="M339 48.7L276 0L275 113.7Z" fill="#5b7ead" stroke="#5b7ead"></path><path d="M275 113.7L172 86.7L266 147.4Z" fill="#48689c" stroke="#48689c"></path><path d="M817 393.6L757 257.1L685 366.9Z" fill="#85abd0" stroke="#85abd0"></path><path d="M53 352.9L156 408.6L189 305.9Z" fill="#7ea4ca" stroke="#7ea4ca"></path><path d="M189 305.9L156 408.6L289 453.6Z" fill="#5b7ead" stroke="#5b7ead"></path><path d="M245 600L322 600L332 543.3Z" fill="#85abd0" stroke="#85abd0"></path><path d="M79 277.1L189 305.9L203 255.1Z" fill="#85abd0" stroke="#85abd0"></path><path d="M276 0L172 86.7L275 113.7Z" fill="#8db3d6" stroke="#8db3d6"></path><path d="M510 600L611 600L554 547.3Z" fill="#7ea4ca" stroke="#7ea4ca"></path><path d="M172 86.7L145 136.4L266 147.4Z" fill="#8db3d6" stroke="#8db3d6"></path><path d="M245 600L332 543.3L276 493.3Z" fill="#48689c" stroke="#48689c"></path><path d="M332 543.3L322 600L445 600Z" fill="#5b7ead" stroke="#5b7ead"></path><path d="M754 44.7L710 0L629 102.7Z" fill="#6186b3" stroke="#6186b3"></path><path d="M754 44.7L741 200.4L776 177.4Z" fill="#85abd0" stroke="#85abd0"></path><path d="M802 0L754 44.7L849 45.7Z" fill="#5b7ead" stroke="#5b7ead"></path><path d="M755 515.3L817 393.6L741 448.6Z" fill="#8db3d6" stroke="#8db3d6"></path><path d="M741 448.6L817 393.6L685 366.9Z" fill="#6186b3" stroke="#6186b3"></path><path d="M721 600L755 515.3L664 489.3Z" fill="#6f95bf" stroke="#6f95bf"></path><path d="M817 393.6L846 306.9L757 257.1Z" fill="#8db3d6" stroke="#8db3d6"></path><path d="M810 257.1L900 199.4L776 177.4Z" fill="#8db3d6" stroke="#8db3d6"></path><path d="M145 136.4L79 277.1L203 255.1Z" fill="#48689c" stroke="#48689c"></path><path d="M173 536.3L245 600L276 493.3Z" fill="#6186b3" stroke="#6186b3"></path><path d="M173 536.3L276 493.3L156 408.6Z" fill="#6186b3" stroke="#6186b3"></path><path d="M112 500.3L173 536.3L156 408.6Z" fill="#8db3d6" stroke="#8db3d6"></path><path d="M721 600L775 542.3L755 515.3Z" fill="#769cc5" stroke="#769cc5"></path><path d="M755 515.3L900 464.6L817 393.6Z" fill="#4e6fa2" stroke="#4e6fa2"></path><path d="M900 316.9L900 246.1L846 306.9Z" fill="#8db3d6" stroke="#8db3d6"></path><path d="M611 600L721 600L664 489.3Z" fill="#85abd0" stroke="#85abd0"></path><path d="M53 352.9L99 460.6L156 408.6Z" fill="#85abd0" stroke="#85abd0"></path><path d="M172 86.7L110 56.7L145 136.4Z" fill="#48689c" stroke="#48689c"></path><path d="M145 136.4L52 150.4L79 277.1Z" fill="#769cc5" stroke="#769cc5"></path><path d="M149 0L110 56.7L172 86.7Z" fill="#8db3d6" stroke="#8db3d6"></path><path d="M276 0L149 0L172 86.7Z" fill="#7ea4ca" stroke="#7ea4ca"></path><path d="M99 460.6L112 500.3L156 408.6Z" fill="#6f95bf" stroke="#6f95bf"></path><path d="M173 536.3L196 600L245 600Z" fill="#769cc5" stroke="#769cc5"></path><path d="M79 277.1L53 352.9L189 305.9Z" fill="#85abd0" stroke="#85abd0"></path><path d="M99 460.6L0 482.3L112 500.3Z" fill="#6186b3" stroke="#6186b3"></path><path d="M0 285.1L53 352.9L79 277.1Z" fill="#85abd0" stroke="#85abd0"></path><path d="M73 600L196 600L173 536.3Z" fill="#5477a8" stroke="#5477a8"></path><path d="M900 316.9L846 306.9L817 393.6Z" fill="#769cc5" stroke="#769cc5"></path><path d="M846 306.9L900 246.1L810 257.1Z" fill="#6186b3" stroke="#6186b3"></path><path d="M849 45.7L754 44.7L776 177.4Z" fill="#48689c" stroke="#48689c"></path><path d="M754 44.7L802 0L710 0Z" fill="#8db3d6" stroke="#8db3d6"></path><path d="M900 464.6L900 316.9L817 393.6Z" fill="#8db3d6" stroke="#8db3d6"></path><path d="M900 246.1L900 199.4L810 257.1Z" fill="#85abd0" stroke="#85abd0"></path><path d="M110 56.7L52 150.4L145 136.4Z" fill="#7ea4ca" stroke="#7ea4ca"></path><path d="M900 67.7L849 45.7L776 177.4Z" fill="#5b7ead" stroke="#5b7ead"></path><path d="M721 600L787 600L775 542.3Z" fill="#688db9" stroke="#688db9"></path><path d="M900 496.3L900 464.6L755 515.3Z" fill="#5477a8" stroke="#5477a8"></path><path d="M900 496.3L755 515.3L775 542.3Z" fill="#6186b3" stroke="#6186b3"></path><path d="M53 352.9L0 438.6L99 460.6Z" fill="#48689c" stroke="#48689c"></path><path d="M52 150.4L0 285.1L79 277.1Z" fill="#8db3d6" stroke="#8db3d6"></path><path d="M0 285.1L0 336.9L53 352.9Z" fill="#85abd0" stroke="#85abd0"></path><path d="M900 199.4L900 67.7L776 177.4Z" fill="#8db3d6" stroke="#8db3d6"></path><path d="M849 45.7L900 0L802 0Z" fill="#85abd0" stroke="#85abd0"></path><path d="M900 600L900 496.3L775 542.3Z" fill="#5b7ead" stroke="#5b7ead"></path><path d="M0 44.7L0 135.4L52 150.4Z" fill="#5b7ead" stroke="#5b7ead"></path><path d="M52 150.4L0 135.4L0 285.1Z" fill="#6f95bf" stroke="#6f95bf"></path><path d="M0 44.7L52 150.4L110 56.7Z" fill="#8db3d6" stroke="#8db3d6"></path><path d="M149 0L61 0L110 56.7Z" fill="#6186b3" stroke="#6186b3"></path><path d="M0 336.9L0 438.6L53 352.9Z" fill="#6f95bf" stroke="#6f95bf"></path><path d="M112 500.3L73 600L173 536.3Z" fill="#6f95bf" stroke="#6f95bf"></path><path d="M900 67.7L900 0L849 45.7Z" fill="#769cc5" stroke="#769cc5"></path><path d="M0 482.3L73 600L112 500.3Z" fill="#85abd0" stroke="#85abd0"></path><path d="M0 438.6L0 482.3L99 460.6Z" fill="#85abd0" stroke="#85abd0"></path><path d="M61 0L0 44.7L110 56.7Z" fill="#769cc5" stroke="#769cc5"></path><path d="M787 600L900 600L775 542.3Z" fill="#48689c" stroke="#48689c"></path><path d="M61 0L0 0L0 44.7Z" fill="#688db9" stroke="#688db9"></path><path d="M0 482.3L0 600L73 600Z" fill="#769cc5" stroke="#769cc5"></path></g></svg>